<svg xmlns="http://www.w3.org/2000/svg" xmlns:xlink="http://www.w3.org/1999/xlink" width="500" zoomAndPan="magnify" viewBox="0 0 375 374.999991" height="500" preserveAspectRatio="xMidYMid meet" version="1.0"><defs><g/><clipPath id="259c7c80e8"><path d="M 116.613281 155.792969 L 157.765625 155.792969 L 157.765625 209.394531 L 116.613281 209.394531 Z M 116.613281 155.792969 " clip-rule="nonzero"/></clipPath></defs><rect x="-37.5" width="450" fill="#ffffff" y="-37.499999" height="449.999989" fill-opacity="1"/><rect x="-37.5" width="450" fill="#ffffff" y="-37.499999" height="449.999989" fill-opacity="1"/><g clip-path="url(#259c7c80e8)"><path fill="#000000" d="M 157.753906 168.382812 L 157.753906 184.160156 L 145.664062 184.160156 L 145.664062 167.851562 L 116.625 167.851562 L 116.625 155.792969 L 145.304688 155.792969 C 147.53125 158.074219 153.332031 163.933594 157.753906 168.382812 Z M 116.625 197.355469 L 128.714844 209.398438 L 128.714844 196.214844 L 145.664062 196.214844 L 145.664062 184.160156 L 116.625 184.160156 Z M 116.625 197.355469 " fill-opacity="1" fill-rule="nonzero"/></g><g fill="#000000" fill-opacity="1"><g transform="translate(158.335339, 210.075777)"><g><path d="M 16.484375 0.5 C 11.785156 0.5 8.144531 -0.910156 5.5625 -3.734375 C 2.988281 -6.566406 1.703125 -10.566406 1.703125 -15.734375 C 1.703125 -20.929688 2.988281 -24.9375 5.5625 -27.75 C 8.144531 -30.5625 11.785156 -31.96875 16.484375 -31.96875 C 21.222656 -31.96875 24.867188 -30.5625 27.421875 -27.75 C 29.984375 -24.9375 31.265625 -20.929688 31.265625 -15.734375 C 31.265625 -10.566406 29.984375 -6.566406 27.421875 -3.734375 C 24.867188 -0.910156 21.222656 0.5 16.484375 0.5 Z M 16.484375 -8.375 C 17.953125 -8.375 19.09375 -9.007812 19.90625 -10.28125 C 20.726562 -11.5625 21.160156 -13.378906 21.203125 -15.734375 C 21.160156 -18.117188 20.726562 -19.953125 19.90625 -21.234375 C 19.09375 -22.515625 17.953125 -23.15625 16.484375 -23.15625 C 14.972656 -23.15625 13.804688 -22.515625 12.984375 -21.234375 C 12.171875 -19.953125 11.765625 -18.117188 11.765625 -15.734375 C 11.765625 -13.378906 12.171875 -11.5625 12.984375 -10.28125 C 13.804688 -9.007812 14.972656 -8.375 16.484375 -8.375 Z M 16.484375 -8.375 "/></g></g></g><g fill="#000000" fill-opacity="1"><g transform="translate(198.862333, 210.075777)"><g><path d="M 25.859375 -13.59375 C 28.128906 -11.789062 29.265625 -8.976562 29.265625 -5.15625 L 29.265625 0 L 19.953125 0 L 19.953125 -6.484375 C 19.953125 -9.253906 18.648438 -10.867188 16.046875 -11.328125 L 12.265625 -11.328125 L 12.265625 0 L 2.078125 0 L 2.078125 -31.46875 L 18.6875 -31.46875 C 22.125 -31.46875 24.773438 -30.59375 26.640625 -28.84375 C 28.515625 -27.101562 29.453125 -24.617188 29.453125 -21.390625 C 29.453125 -17.867188 28.253906 -15.269531 25.859375 -13.59375 Z M 17.296875 -18.875 C 19.316406 -18.875 20.328125 -19.648438 20.328125 -21.203125 C 20.328125 -22.796875 19.316406 -23.59375 17.296875 -23.59375 L 12.265625 -23.59375 L 12.265625 -18.875 Z M 17.296875 -18.875 "/></g></g></g><g fill="#000000" fill-opacity="1"><g transform="translate(237.627612, 210.075777)"><g><path d="M 30.140625 0 L 25.609375 0 L 24.484375 -3.453125 C 22.046875 -0.816406 19.210938 0.5 15.984375 0.5 C 11.410156 0.5 7.882812 -0.910156 5.40625 -3.734375 C 2.9375 -6.566406 1.703125 -10.566406 1.703125 -15.734375 C 1.703125 -20.929688 2.9375 -24.9375 5.40625 -27.75 C 7.882812 -30.5625 11.410156 -31.96875 15.984375 -31.96875 C 19.921875 -31.96875 23.085938 -30.9375 25.484375 -28.875 C 27.878906 -26.820312 29.390625 -23.910156 30.015625 -20.140625 L 20.078125 -18.375 C 19.566406 -21.5625 18.222656 -23.15625 16.046875 -23.15625 C 14.660156 -23.15625 13.597656 -22.515625 12.859375 -21.234375 C 12.128906 -19.953125 11.765625 -18.117188 11.765625 -15.734375 C 11.765625 -13.378906 12.128906 -11.5625 12.859375 -10.28125 C 13.597656 -9.007812 14.660156 -8.375 16.046875 -8.375 C 17.222656 -8.375 18.125 -9.273438 18.75 -11.078125 L 15.859375 -11.078125 L 15.859375 -16.671875 L 30.328125 -16.671875 Z M 30.140625 0 "/></g></g></g></svg>