<svg xmlns="http://www.w3.org/2000/svg" xmlns:xlink="http://www.w3.org/1999/xlink" width="500" zoomAndPan="magnify" viewBox="0 0 375 374.999991" height="500" preserveAspectRatio="xMidYMid meet" version="1.0"><defs><g/><clipPath id="6360ea73cf"><path d="M 107.097656 153.777344 L 151.863281 153.777344 L 151.863281 211.917969 L 107.097656 211.917969 Z M 107.097656 153.777344 " clip-rule="nonzero"/></clipPath></defs><rect x="-37.5" width="450" fill="#ffffff" y="-37.499999" height="449.999989" fill-opacity="1"/><rect x="-37.5" width="450" fill="#000000" y="-37.499999" height="449.999989" fill-opacity="1"/><g clip-path="url(#6360ea73cf)"><path fill="#ffffff" d="M 151.582031 167.433594 L 151.582031 184.546875 L 138.507812 184.546875 L 138.507812 166.855469 L 107.105469 166.855469 L 107.105469 153.777344 L 138.117188 153.777344 C 140.527344 156.253906 146.800781 162.609375 151.582031 167.433594 Z M 107.105469 198.855469 L 120.179688 211.917969 L 120.179688 197.621094 L 138.507812 197.621094 L 138.507812 184.546875 L 107.105469 184.546875 Z M 107.105469 198.855469 " fill-opacity="1" fill-rule="nonzero"/></g><g fill="#ffffff" fill-opacity="1"><g transform="translate(150.475687, 211.573452)"><g><path d="M 17.421875 0.53125 C 12.453125 0.53125 8.601562 -0.960938 5.875 -3.953125 C 3.15625 -6.941406 1.796875 -11.164062 1.796875 -16.625 C 1.796875 -22.125 3.15625 -26.359375 5.875 -29.328125 C 8.601562 -32.296875 12.453125 -33.78125 17.421875 -33.78125 C 22.429688 -33.78125 26.285156 -32.296875 28.984375 -29.328125 C 31.691406 -26.359375 33.046875 -22.125 33.046875 -16.625 C 33.046875 -11.164062 31.691406 -6.941406 28.984375 -3.953125 C 26.285156 -0.960938 22.429688 0.53125 17.421875 0.53125 Z M 17.421875 -8.84375 C 18.972656 -8.84375 20.179688 -9.519531 21.046875 -10.875 C 21.910156 -12.226562 22.363281 -14.144531 22.40625 -16.625 C 22.363281 -19.15625 21.910156 -21.09375 21.046875 -22.4375 C 20.179688 -23.789062 18.972656 -24.46875 17.421875 -24.46875 C 15.828125 -24.46875 14.597656 -23.789062 13.734375 -22.4375 C 12.867188 -21.09375 12.4375 -19.15625 12.4375 -16.625 C 12.4375 -14.144531 12.867188 -12.226562 13.734375 -10.875 C 14.597656 -9.519531 15.828125 -8.84375 17.421875 -8.84375 Z M 17.421875 -8.84375 "/></g></g></g><g fill="#ffffff" fill-opacity="1"><g transform="translate(193.296599, 211.573452)"><g><path d="M 27.328125 -14.359375 C 29.722656 -12.453125 30.921875 -9.484375 30.921875 -5.453125 L 30.921875 0 L 21.078125 0 L 21.078125 -6.84375 C 21.078125 -9.769531 19.703125 -11.476562 16.953125 -11.96875 L 12.96875 -11.96875 L 12.96875 0 L 2.1875 0 L 2.1875 -33.25 L 19.75 -33.25 C 23.382812 -33.25 26.1875 -32.328125 28.15625 -30.484375 C 30.132812 -28.648438 31.125 -26.023438 31.125 -22.609375 C 31.125 -18.878906 29.859375 -16.128906 27.328125 -14.359375 Z M 18.28125 -19.953125 C 20.414062 -19.953125 21.484375 -20.769531 21.484375 -22.40625 C 21.484375 -24.09375 20.414062 -24.9375 18.28125 -24.9375 L 12.96875 -24.9375 L 12.96875 -19.953125 Z M 18.28125 -19.953125 "/></g></g></g><g fill="#ffffff" fill-opacity="1"><g transform="translate(234.256081, 211.573452)"><g><path d="M 31.84375 0 L 27.0625 0 L 25.859375 -3.65625 C 23.296875 -0.863281 20.304688 0.53125 16.890625 0.53125 C 12.054688 0.53125 8.332031 -0.960938 5.71875 -3.953125 C 3.101562 -6.941406 1.796875 -11.164062 1.796875 -16.625 C 1.796875 -22.125 3.101562 -26.359375 5.71875 -29.328125 C 8.332031 -32.296875 12.054688 -33.78125 16.890625 -33.78125 C 21.054688 -33.78125 24.398438 -32.691406 26.921875 -30.515625 C 29.453125 -28.347656 31.050781 -25.269531 31.71875 -21.28125 L 21.21875 -19.421875 C 20.6875 -22.785156 19.265625 -24.46875 16.953125 -24.46875 C 15.492188 -24.46875 14.375 -23.789062 13.59375 -22.4375 C 12.820312 -21.09375 12.4375 -19.15625 12.4375 -16.625 C 12.4375 -14.144531 12.820312 -12.226562 13.59375 -10.875 C 14.375 -9.519531 15.492188 -8.84375 16.953125 -8.84375 C 18.191406 -8.84375 19.144531 -9.796875 19.8125 -11.703125 L 16.75 -11.703125 L 16.75 -17.625 L 32.046875 -17.625 Z M 31.84375 0 "/></g></g></g></svg>